<?xml version="1.0" encoding="UTF-8"?>
<!--Generator: Apple Native CoreSVG 326-->
<!DOCTYPE svg
PUBLIC "-//W3C//DTD SVG 1.1//EN"
       "http://www.w3.org/Graphics/SVG/1.1/DTD/svg11.dtd">
<svg version="1.1" xmlns="http://www.w3.org/2000/svg" xmlns:xlink="http://www.w3.org/1999/xlink" viewBox="0 0 19.0775 19.262">
 <g>
  <rect height="19.262" opacity="0" width="19.0775" x="0" y="0"/>
  <path d="M4.44089e-16 7.79221C4.44089e-16 12.0921 3.4944 15.5762 7.79433 15.5762C9.48709 15.5762 11.0407 15.0359 12.3178 14.1134L17.1242 18.9323C17.3543 19.1541 17.6466 19.2599 17.9514 19.2599C18.6108 19.2599 19.0772 18.7601 19.0772 18.1113C19.0772 17.8003 18.9549 17.5205 18.7621 17.3048L13.9764 12.5088C14.984 11.1985 15.5762 9.57011 15.5762 7.79221C15.5762 3.49439 12.0921 0 7.79433 0C3.4944 0 4.44089e-16 3.49439 4.44089e-16 7.79221ZM1.67209 7.79221C1.67209 4.40817 4.40816 1.67208 7.79433 1.67208C11.168 1.67208 13.9144 4.40817 13.9144 7.79221C13.9144 11.168 11.168 13.9144 7.79433 13.9144C4.40816 13.9144 1.67209 11.168 1.67209 7.79221ZM7.80679 11.8892C7.95822 11.8892 8.07842 11.7648 8.12194 11.6134C8.61404 8.95791 8.86115 8.47313 11.599 8.10736C11.7815 8.08454 11.8935 7.9519 11.8935 7.7901C11.8935 7.62217 11.7815 7.49987 11.599 7.46672C8.8715 7.08846 8.51495 6.58108 8.12194 3.97926C8.08877 3.80923 7.95822 3.68693 7.80679 3.68693C7.63254 3.68693 7.50812 3.79889 7.4646 3.97926C6.97018 6.6267 6.73575 7.08846 3.98963 7.46672C3.81748 7.49987 3.69518 7.62217 3.69518 7.7901C3.69518 7.9519 3.81748 8.0763 3.98963 8.10736C6.74208 8.37647 7.08847 8.95791 7.4646 11.603C7.49777 11.7648 7.62218 11.8892 7.80679 11.8892Z" fill="white" fill-opacity="0.85"/>
 </g>
</svg>
